<?xml version="1.0" standalone="no"?>
<!DOCTYPE svg PUBLIC "-//W3C//DTD SVG 20010904//EN"
 "http://www.w3.org/TR/2001/REC-SVG-20010904/DTD/svg10.dtd">
<svg version="1.0" xmlns="http://www.w3.org/2000/svg"
 width="512.000000pt" height="512.000000pt" viewBox="0 0 512.000000 512.000000"
 preserveAspectRatio="xMidYMid meet">

<g transform="translate(0.000000,512.000000) scale(0.100000,-0.100000)"
fill="#000000" stroke="none">
<path d="M1825 5106 c-111 -35 -198 -114 -235 -212 -20 -55 -20 -65 -18 -1087
l3 -1032 26 -55 c33 -70 99 -136 169 -169 l55 -26 328 -3 327 -3 0 -109 0
-109 -327 -3 -328 -3 -56 -26 c-32 -15 -75 -45 -98 -68 -41 -41 -91 -127 -91
-157 0 -14 -11 -16 -87 -12 -98 5 -133 19 -188 73 -72 73 -70 54 -73 518 l-3
417 96 0 95 0 0 80 0 80 -180 0 -180 0 0 -452 c0 -259 5 -481 10 -518 26 -161
143 -299 295 -344 26 -8 83 -18 126 -22 l79 -7 0 -133 0 -134 375 0 375 0 0
-130 0 -130 80 0 80 0 0 -149 0 -149 -322 -5 c-356 -5 -372 -7 -470 -70 -105
-67 -187 -194 -196 -304 l-4 -53 81 0 81 0 0 28 c0 37 41 121 76 156 16 16 52
39 79 52 49 23 56 24 363 24 l312 0 0 -130 0 -130 80 0 80 0 0 130 0 130 313
0 c292 0 315 -2 357 -21 25 -11 60 -35 79 -52 39 -37 81 -120 81 -159 l0 -28
81 0 81 0 -4 53 c-9 110 -91 237 -196 304 -98 63 -114 65 -469 70 l-323 5 0
149 0 149 80 0 80 0 0 130 0 130 375 0 375 0 0 134 0 133 79 7 c43 4 100 14
126 22 152 45 269 183 295 344 5 37 10 259 10 518 l0 452 -180 0 -180 0 0 -80
0 -80 95 0 95 0 0 -398 c0 -228 -4 -412 -10 -431 -15 -54 -58 -107 -113 -143
-44 -28 -60 -32 -138 -36 -78 -4 -89 -2 -89 12 0 30 -50 116 -91 157 -23 23
-66 53 -98 68 l-56 26 -327 3 -328 3 0 109 0 109 328 3 327 3 55 26 c70 33
136 99 169 169 l26 55 0 1045 0 1045 -22 47 c-32 71 -103 141 -176 174 l-62
29 -710 2 c-554 1 -719 -1 -750 -11z m1450 -165 c47 -22 89 -64 104 -104 8
-19 11 -343 11 -1019 0 -990 0 -992 -21 -1036 -13 -26 -38 -54 -62 -70 l-41
-27 -706 0 -706 0 -41 27 c-24 16 -49 44 -62 70 -21 44 -21 46 -21 1036 0 676
3 1000 11 1019 15 40 57 82 104 104 38 17 79 19 715 19 636 0 677 -2 715 -19z
m34 -2834 c66 -44 81 -87 81 -234 l0 -123 -830 0 -830 0 0 123 c1 164 26 218
121 256 15 6 297 9 720 8 l695 -2 43 -28z m-669 -567 l0 -50 -80 0 -80 0 0 50
0 50 80 0 80 0 0 -50z"/>
<path d="M1470 459 c-89 -40 -131 -101 -138 -201 -4 -58 -1 -75 22 -122 95
-194 379 -171 441 36 19 64 19 72 -1 139 -19 66 -92 142 -151 158 -58 16 -123
13 -173 -10z m144 -160 c20 -16 26 -29 26 -58 0 -61 -55 -95 -108 -67 -49 25
-57 82 -17 121 30 30 64 32 99 4z"/>
<path d="M2465 461 c-46 -21 -99 -70 -121 -113 -22 -43 -29 -121 -14 -172 26
-94 133 -176 230 -176 97 0 204 82 230 176 43 153 -71 304 -230 304 -32 0 -72
-8 -95 -19z m143 -161 c31 -29 38 -65 18 -96 -36 -55 -96 -55 -132 0 -45 70
53 152 114 96z"/>
<path d="M3472 469 c-54 -16 -127 -95 -146 -158 -20 -67 -20 -75 -1 -139 62
-207 346 -230 441 -36 23 47 26 64 22 122 -5 69 -30 125 -74 164 -56 50 -161
70 -242 47z m133 -174 c40 -39 32 -96 -17 -121 -53 -28 -108 6 -108 67 0 70
77 103 125 54z"/>
</g>
</svg>
